<mxfile host="app.diagrams.net" modified="2023-06-24T03:07:08.021Z" agent="Mozilla/5.0 (Windows NT 10.0; Win64; x64) AppleWebKit/537.36 (KHTML, like Gecko) Chrome/114.0.0.0 Safari/537.36" etag="ewTIs8Pwd-yJyhNcMuaH" version="21.5.0" type="device">
  <diagram name="PÃ¡gina-1" id="AV6tWnQQNQJE5pCxunog">
    <mxGraphModel dx="1947" dy="1621" grid="1" gridSize="10" guides="1" tooltips="1" connect="1" arrows="1" fold="1" page="1" pageScale="1" pageWidth="827" pageHeight="1169" math="0" shadow="0">
      <root>
        <mxCell id="0" />
        <mxCell id="1" parent="0" />
        <mxCell id="D-RA_q1G5jw-01Rus7TT-1" value="Cursos" style="rounded=0;whiteSpace=wrap;html=1;" parent="1" vertex="1">
          <mxGeometry x="-105" y="2.5" width="90" height="50" as="geometry" />
        </mxCell>
        <mxCell id="D-RA_q1G5jw-01Rus7TT-2" value="Estudiante" style="rounded=0;whiteSpace=wrap;html=1;" parent="1" vertex="1">
          <mxGeometry x="-110" y="320" width="120" height="60" as="geometry" />
        </mxCell>
        <mxCell id="D-RA_q1G5jw-01Rus7TT-4" value="Tareas" style="rounded=0;whiteSpace=wrap;html=1;" parent="1" vertex="1">
          <mxGeometry x="379" y="5" width="110" height="45" as="geometry" />
        </mxCell>
        <mxCell id="D-RA_q1G5jw-01Rus7TT-10" value="Generan" style="shape=rhombus;perimeter=rhombusPerimeter;whiteSpace=wrap;html=1;align=center;" parent="1" vertex="1">
          <mxGeometry x="374" y="132.5" width="120" height="60" as="geometry" />
        </mxCell>
        <mxCell id="D-RA_q1G5jw-01Rus7TT-11" value="" style="endArrow=none;html=1;rounded=0;entryX=0.5;entryY=1;entryDx=0;entryDy=0;" parent="1" source="D-RA_q1G5jw-01Rus7TT-20" target="D-RA_q1G5jw-01Rus7TT-10" edge="1">
          <mxGeometry relative="1" as="geometry">
            <mxPoint x="584" y="352.5" as="sourcePoint" />
            <mxPoint x="744" y="352.5" as="targetPoint" />
          </mxGeometry>
        </mxCell>
        <mxCell id="D-RA_q1G5jw-01Rus7TT-12" value="" style="endArrow=none;html=1;rounded=0;entryX=0.5;entryY=0;entryDx=0;entryDy=0;" parent="1" source="D-RA_q1G5jw-01Rus7TT-4" target="D-RA_q1G5jw-01Rus7TT-10" edge="1">
          <mxGeometry relative="1" as="geometry">
            <mxPoint x="364" y="-0.5" as="sourcePoint" />
            <mxPoint x="524" y="-0.5" as="targetPoint" />
          </mxGeometry>
        </mxCell>
        <mxCell id="D-RA_q1G5jw-01Rus7TT-13" value="Tienen" style="shape=rhombus;perimeter=rhombusPerimeter;whiteSpace=wrap;html=1;align=center;rotation=0;" parent="1" vertex="1">
          <mxGeometry x="140" y="322.5" width="120" height="60" as="geometry" />
        </mxCell>
        <mxCell id="D-RA_q1G5jw-01Rus7TT-14" value="" style="endArrow=none;html=1;rounded=0;exitX=0.5;exitY=1;exitDx=0;exitDy=0;" parent="1" source="D-RA_q1G5jw-01Rus7TT-22" edge="1">
          <mxGeometry relative="1" as="geometry">
            <mxPoint x="260" y="280" as="sourcePoint" />
            <mxPoint x="-60" y="320" as="targetPoint" />
          </mxGeometry>
        </mxCell>
        <mxCell id="D-RA_q1G5jw-01Rus7TT-15" value="" style="endArrow=none;html=1;rounded=0;entryX=0;entryY=0.5;entryDx=0;entryDy=0;" parent="1" source="D-RA_q1G5jw-01Rus7TT-2" target="D-RA_q1G5jw-01Rus7TT-13" edge="1">
          <mxGeometry relative="1" as="geometry">
            <mxPoint x="240" y="260" as="sourcePoint" />
            <mxPoint x="400" y="260" as="targetPoint" />
          </mxGeometry>
        </mxCell>
        <mxCell id="D-RA_q1G5jw-01Rus7TT-19" value="N:N" style="text;html=1;strokeColor=none;fillColor=none;align=center;verticalAlign=middle;whiteSpace=wrap;rounded=0;rotation=0;" parent="1" vertex="1">
          <mxGeometry x="80" y="365" width="60" height="20" as="geometry" />
        </mxCell>
        <mxCell id="D-RA_q1G5jw-01Rus7TT-20" value="Profesor" style="rounded=0;whiteSpace=wrap;html=1;" parent="1" vertex="1">
          <mxGeometry x="374" y="322.5" width="120" height="60" as="geometry" />
        </mxCell>
        <mxCell id="D-RA_q1G5jw-01Rus7TT-21" value="" style="endArrow=none;html=1;rounded=0;exitX=1;exitY=0.5;exitDx=0;exitDy=0;" parent="1" source="D-RA_q1G5jw-01Rus7TT-13" target="D-RA_q1G5jw-01Rus7TT-20" edge="1">
          <mxGeometry width="50" height="50" relative="1" as="geometry">
            <mxPoint x="614" y="372.5" as="sourcePoint" />
            <mxPoint x="664" y="322.5" as="targetPoint" />
          </mxGeometry>
        </mxCell>
        <mxCell id="D-RA_q1G5jw-01Rus7TT-22" value="Pertenece" style="shape=rhombus;perimeter=rhombusPerimeter;whiteSpace=wrap;html=1;align=center;" parent="1" vertex="1">
          <mxGeometry x="-120" y="120" width="120" height="60" as="geometry" />
        </mxCell>
        <mxCell id="D-RA_q1G5jw-01Rus7TT-23" value="" style="endArrow=none;html=1;rounded=0;exitX=0.5;exitY=0;exitDx=0;exitDy=0;" parent="1" source="D-RA_q1G5jw-01Rus7TT-22" target="D-RA_q1G5jw-01Rus7TT-1" edge="1">
          <mxGeometry width="50" height="50" relative="1" as="geometry">
            <mxPoint x="-10" y="185" as="sourcePoint" />
            <mxPoint x="40" y="135" as="targetPoint" />
          </mxGeometry>
        </mxCell>
        <mxCell id="D-RA_q1G5jw-01Rus7TT-24" value="N:1" style="text;html=1;strokeColor=none;fillColor=none;align=center;verticalAlign=middle;whiteSpace=wrap;rounded=0;rotation=90;" parent="1" vertex="1">
          <mxGeometry x="444" y="222.5" width="60" height="30" as="geometry" />
        </mxCell>
        <mxCell id="D-RA_q1G5jw-01Rus7TT-27" value="N:N" style="text;html=1;strokeColor=none;fillColor=none;align=center;verticalAlign=middle;whiteSpace=wrap;rounded=0;rotation=-90;" parent="1" vertex="1">
          <mxGeometry x="-120" y="192.5" width="60" height="30" as="geometry" />
        </mxCell>
        <mxCell id="D-RA_q1G5jw-01Rus7TT-29" value="titulo" style="ellipse;whiteSpace=wrap;html=1;" parent="1" vertex="1">
          <mxGeometry x="504" y="-37.5" width="50" height="30" as="geometry" />
        </mxCell>
        <mxCell id="D-RA_q1G5jw-01Rus7TT-31" value="" style="endArrow=none;html=1;rounded=0;entryX=0.945;entryY=-0.033;entryDx=0;entryDy=0;entryPerimeter=0;" parent="1" source="D-RA_q1G5jw-01Rus7TT-29" target="D-RA_q1G5jw-01Rus7TT-4" edge="1">
          <mxGeometry width="50" height="50" relative="1" as="geometry">
            <mxPoint x="64" y="-12.5" as="sourcePoint" />
            <mxPoint x="494" y="2.5" as="targetPoint" />
          </mxGeometry>
        </mxCell>
        <mxCell id="D-RA_q1G5jw-01Rus7TT-33" value="correo" style="ellipse;whiteSpace=wrap;html=1;" parent="1" vertex="1">
          <mxGeometry x="394" y="422.5" width="70" height="30" as="geometry" />
        </mxCell>
        <mxCell id="D-RA_q1G5jw-01Rus7TT-34" value="" style="endArrow=none;html=1;rounded=0;" parent="1" source="D-RA_q1G5jw-01Rus7TT-20" target="D-RA_q1G5jw-01Rus7TT-33" edge="1">
          <mxGeometry width="50" height="50" relative="1" as="geometry">
            <mxPoint x="614" y="362.5" as="sourcePoint" />
            <mxPoint x="664" y="312.5" as="targetPoint" />
          </mxGeometry>
        </mxCell>
        <mxCell id="D-RA_q1G5jw-01Rus7TT-35" value="cc" style="ellipse;whiteSpace=wrap;html=1;aspect=fixed;" parent="1" vertex="1">
          <mxGeometry x="-160" y="400" width="30" height="30" as="geometry" />
        </mxCell>
        <mxCell id="D-RA_q1G5jw-01Rus7TT-36" value="" style="endArrow=none;html=1;rounded=0;" parent="1" source="D-RA_q1G5jw-01Rus7TT-2" target="D-RA_q1G5jw-01Rus7TT-35" edge="1">
          <mxGeometry width="50" height="50" relative="1" as="geometry">
            <mxPoint x="440" y="360" as="sourcePoint" />
            <mxPoint x="490" y="310" as="targetPoint" />
          </mxGeometry>
        </mxCell>
        <mxCell id="D-RA_q1G5jw-01Rus7TT-37" value="Temas" style="ellipse;whiteSpace=wrap;html=1;" parent="1" vertex="1">
          <mxGeometry x="-170" y="-30" width="50" height="30" as="geometry" />
        </mxCell>
        <mxCell id="D-RA_q1G5jw-01Rus7TT-38" value="" style="endArrow=none;html=1;rounded=0;exitX=0;exitY=0;exitDx=0;exitDy=0;" parent="1" source="D-RA_q1G5jw-01Rus7TT-1" target="D-RA_q1G5jw-01Rus7TT-37" edge="1">
          <mxGeometry width="50" height="50" relative="1" as="geometry">
            <mxPoint x="-10" y="105" as="sourcePoint" />
            <mxPoint x="40" y="55" as="targetPoint" />
          </mxGeometry>
        </mxCell>
        <mxCell id="D-RA_q1G5jw-01Rus7TT-41" value="Tema" style="ellipse;whiteSpace=wrap;html=1;direction=south;" parent="1" vertex="1">
          <mxGeometry x="324" y="62.5" width="40" height="40" as="geometry" />
        </mxCell>
        <mxCell id="D-RA_q1G5jw-01Rus7TT-42" value="nota" style="ellipse;whiteSpace=wrap;html=1;" parent="1" vertex="1">
          <mxGeometry x="494" y="62.5" width="50" height="35" as="geometry" />
        </mxCell>
        <mxCell id="D-RA_q1G5jw-01Rus7TT-47" value="" style="endArrow=none;html=1;rounded=0;exitX=0;exitY=0.5;exitDx=0;exitDy=0;entryX=0;entryY=1;entryDx=0;entryDy=0;" parent="1" source="D-RA_q1G5jw-01Rus7TT-41" target="D-RA_q1G5jw-01Rus7TT-4" edge="1">
          <mxGeometry width="50" height="50" relative="1" as="geometry">
            <mxPoint x="211.48314552244847" y="187.7871413764176" as="sourcePoint" />
            <mxPoint x="114" y="97.5" as="targetPoint" />
          </mxGeometry>
        </mxCell>
        <mxCell id="D-RA_q1G5jw-01Rus7TT-49" value="email" style="ellipse;whiteSpace=wrap;html=1;" parent="1" vertex="1">
          <mxGeometry x="-200" y="307.5" width="40" height="35" as="geometry" />
        </mxCell>
        <mxCell id="D-RA_q1G5jw-01Rus7TT-51" value="cel" style="ellipse;whiteSpace=wrap;html=1;" parent="1" vertex="1">
          <mxGeometry x="-180" y="355" width="30" height="30" as="geometry" />
        </mxCell>
        <mxCell id="D-RA_q1G5jw-01Rus7TT-54" value="" style="endArrow=none;html=1;rounded=0;" parent="1" source="D-RA_q1G5jw-01Rus7TT-51" target="D-RA_q1G5jw-01Rus7TT-2" edge="1">
          <mxGeometry width="50" height="50" relative="1" as="geometry">
            <mxPoint x="290" y="520" as="sourcePoint" />
            <mxPoint x="340" y="470" as="targetPoint" />
          </mxGeometry>
        </mxCell>
        <mxCell id="D-RA_q1G5jw-01Rus7TT-55" value="" style="endArrow=none;html=1;rounded=0;" parent="1" source="D-RA_q1G5jw-01Rus7TT-2" target="D-RA_q1G5jw-01Rus7TT-49" edge="1">
          <mxGeometry width="50" height="50" relative="1" as="geometry">
            <mxPoint x="290" y="520" as="sourcePoint" />
            <mxPoint x="340" y="470" as="targetPoint" />
          </mxGeometry>
        </mxCell>
        <mxCell id="IvsJYoFvJ2GixcBz4Me7-3" value="Titulo" style="ellipse;whiteSpace=wrap;html=1;" parent="1" vertex="1">
          <mxGeometry x="-170" y="45" width="50" height="30" as="geometry" />
        </mxCell>
        <mxCell id="IvsJYoFvJ2GixcBz4Me7-4" value="profesor" style="ellipse;whiteSpace=wrap;html=1;" parent="1" vertex="1">
          <mxGeometry y="40" width="50" height="30" as="geometry" />
        </mxCell>
        <mxCell id="IvsJYoFvJ2GixcBz4Me7-5" value="id" style="ellipse;whiteSpace=wrap;html=1;" parent="1" vertex="1">
          <mxGeometry y="-30" width="50" height="30" as="geometry" />
        </mxCell>
        <mxCell id="IvsJYoFvJ2GixcBz4Me7-6" value="" style="endArrow=none;html=1;rounded=0;entryX=1;entryY=1;entryDx=0;entryDy=0;" parent="1" source="IvsJYoFvJ2GixcBz4Me7-4" target="D-RA_q1G5jw-01Rus7TT-1" edge="1">
          <mxGeometry width="50" height="50" relative="1" as="geometry">
            <mxPoint x="70" y="55" as="sourcePoint" />
            <mxPoint x="60" y="20" as="targetPoint" />
          </mxGeometry>
        </mxCell>
        <mxCell id="IvsJYoFvJ2GixcBz4Me7-7" value="" style="endArrow=none;html=1;rounded=0;exitX=1;exitY=0;exitDx=0;exitDy=0;" parent="1" source="D-RA_q1G5jw-01Rus7TT-1" target="IvsJYoFvJ2GixcBz4Me7-5" edge="1">
          <mxGeometry width="50" height="50" relative="1" as="geometry">
            <mxPoint x="-10" y="10" as="sourcePoint" />
            <mxPoint x="20.76975052931357" y="-27.66711712540473" as="targetPoint" />
          </mxGeometry>
        </mxCell>
        <mxCell id="IvsJYoFvJ2GixcBz4Me7-8" value="" style="endArrow=none;html=1;rounded=0;exitX=1;exitY=0.5;exitDx=0;exitDy=0;entryX=0;entryY=1;entryDx=0;entryDy=0;" parent="1" source="IvsJYoFvJ2GixcBz4Me7-3" target="D-RA_q1G5jw-01Rus7TT-1" edge="1">
          <mxGeometry width="50" height="50" relative="1" as="geometry">
            <mxPoint x="-121.5562809819096" y="44.79028466264663" as="sourcePoint" />
            <mxPoint x="-110" y="50" as="targetPoint" />
          </mxGeometry>
        </mxCell>
        <mxCell id="IvsJYoFvJ2GixcBz4Me7-11" value="cel" style="ellipse;whiteSpace=wrap;html=1;" parent="1" vertex="1">
          <mxGeometry x="534" y="372.5" width="70" height="30" as="geometry" />
        </mxCell>
        <mxCell id="IvsJYoFvJ2GixcBz4Me7-12" value="nombre" style="ellipse;whiteSpace=wrap;html=1;" parent="1" vertex="1">
          <mxGeometry x="544" y="312.5" width="70" height="30" as="geometry" />
        </mxCell>
        <mxCell id="IvsJYoFvJ2GixcBz4Me7-13" value="" style="endArrow=none;html=1;rounded=0;" parent="1" source="IvsJYoFvJ2GixcBz4Me7-12" target="D-RA_q1G5jw-01Rus7TT-20" edge="1">
          <mxGeometry width="50" height="50" relative="1" as="geometry">
            <mxPoint x="694" y="312.5" as="sourcePoint" />
            <mxPoint x="744" y="262.5" as="targetPoint" />
          </mxGeometry>
        </mxCell>
        <mxCell id="IvsJYoFvJ2GixcBz4Me7-14" value="" style="endArrow=none;html=1;rounded=0;" parent="1" source="D-RA_q1G5jw-01Rus7TT-20" target="IvsJYoFvJ2GixcBz4Me7-11" edge="1">
          <mxGeometry width="50" height="50" relative="1" as="geometry">
            <mxPoint x="694" y="372.5" as="sourcePoint" />
            <mxPoint x="744" y="322.5" as="targetPoint" />
          </mxGeometry>
        </mxCell>
        <mxCell id="buB4J1Q0feXHQOtP-gq1-1" value="Nombre" style="ellipse;whiteSpace=wrap;html=1;aspect=fixed;" parent="1" vertex="1">
          <mxGeometry x="-120" y="420" width="50" height="50" as="geometry" />
        </mxCell>
        <mxCell id="buB4J1Q0feXHQOtP-gq1-2" value="" style="endArrow=none;html=1;rounded=0;entryX=0.5;entryY=0;entryDx=0;entryDy=0;" parent="1" source="D-RA_q1G5jw-01Rus7TT-2" target="buB4J1Q0feXHQOtP-gq1-1" edge="1">
          <mxGeometry width="50" height="50" relative="1" as="geometry">
            <mxPoint x="-40" y="330" as="sourcePoint" />
            <mxPoint x="0.36273615387517566" y="280.2669807100192" as="targetPoint" />
          </mxGeometry>
        </mxCell>
        <mxCell id="MVjOP8AUCmfijOdewOWv-3" value="cc" style="ellipse;whiteSpace=wrap;html=1;" parent="1" vertex="1">
          <mxGeometry x="290" y="405" width="70" height="30" as="geometry" />
        </mxCell>
        <mxCell id="MVjOP8AUCmfijOdewOWv-4" value="" style="endArrow=none;html=1;rounded=0;exitX=1;exitY=0;exitDx=0;exitDy=0;entryX=0.25;entryY=1;entryDx=0;entryDy=0;" parent="1" source="MVjOP8AUCmfijOdewOWv-3" target="D-RA_q1G5jw-01Rus7TT-20" edge="1">
          <mxGeometry width="50" height="50" relative="1" as="geometry">
            <mxPoint x="349" y="412.5" as="sourcePoint" />
            <mxPoint x="584" y="382.5" as="targetPoint" />
          </mxGeometry>
        </mxCell>
        <mxCell id="MVjOP8AUCmfijOdewOWv-11" value="" style="endArrow=none;html=1;rounded=0;entryX=1;entryY=1;entryDx=0;entryDy=0;exitX=0.5;exitY=0;exitDx=0;exitDy=0;" parent="1" source="D-RA_q1G5jw-01Rus7TT-42" target="D-RA_q1G5jw-01Rus7TT-4" edge="1">
          <mxGeometry width="50" height="50" relative="1" as="geometry">
            <mxPoint x="261" y="209.5" as="sourcePoint" />
            <mxPoint x="284" y="162.5" as="targetPoint" />
          </mxGeometry>
        </mxCell>
        <mxCell id="MVjOP8AUCmfijOdewOWv-13" style="edgeStyle=orthogonalEdgeStyle;rounded=0;orthogonalLoop=1;jettySize=auto;html=1;exitX=0.5;exitY=1;exitDx=0;exitDy=0;" parent="1" source="IvsJYoFvJ2GixcBz4Me7-4" target="IvsJYoFvJ2GixcBz4Me7-4" edge="1">
          <mxGeometry relative="1" as="geometry" />
        </mxCell>
        <mxCell id="MVjOP8AUCmfijOdewOWv-16" value="Usuario" style="ellipse;whiteSpace=wrap;html=1;" parent="1" vertex="1">
          <mxGeometry x="-160" y="270" width="50" height="40" as="geometry" />
        </mxCell>
        <mxCell id="MVjOP8AUCmfijOdewOWv-18" value="contraseÃ±a" style="ellipse;whiteSpace=wrap;html=1;aspect=fixed;" parent="1" vertex="1">
          <mxGeometry x="-35" y="410" width="65" height="65" as="geometry" />
        </mxCell>
        <mxCell id="MVjOP8AUCmfijOdewOWv-19" value="" style="endArrow=none;html=1;rounded=0;entryX=1;entryY=1;entryDx=0;entryDy=0;exitX=0.25;exitY=0;exitDx=0;exitDy=0;" parent="1" source="D-RA_q1G5jw-01Rus7TT-2" target="MVjOP8AUCmfijOdewOWv-16" edge="1">
          <mxGeometry width="50" height="50" relative="1" as="geometry">
            <mxPoint x="-100" y="348" as="sourcePoint" />
            <mxPoint x="-150" y="339" as="targetPoint" />
          </mxGeometry>
        </mxCell>
        <mxCell id="MVjOP8AUCmfijOdewOWv-20" value="" style="endArrow=none;html=1;rounded=0;exitX=0.75;exitY=1;exitDx=0;exitDy=0;" parent="1" source="D-RA_q1G5jw-01Rus7TT-2" target="MVjOP8AUCmfijOdewOWv-18" edge="1">
          <mxGeometry width="50" height="50" relative="1" as="geometry">
            <mxPoint x="-90" y="358" as="sourcePoint" />
            <mxPoint x="-140" y="349" as="targetPoint" />
          </mxGeometry>
        </mxCell>
        <mxCell id="MVjOP8AUCmfijOdewOWv-21" value="id" style="ellipse;whiteSpace=wrap;html=1;" parent="1" vertex="1">
          <mxGeometry x="324" y="-37.5" width="50" height="30" as="geometry" />
        </mxCell>
        <mxCell id="MVjOP8AUCmfijOdewOWv-22" value="" style="endArrow=none;html=1;rounded=0;exitX=0;exitY=0;exitDx=0;exitDy=0;entryX=1;entryY=1;entryDx=0;entryDy=0;" parent="1" source="D-RA_q1G5jw-01Rus7TT-4" target="MVjOP8AUCmfijOdewOWv-21" edge="1">
          <mxGeometry width="50" height="50" relative="1" as="geometry">
            <mxPoint x="354" y="65.5" as="sourcePoint" />
            <mxPoint x="384" y="52.5" as="targetPoint" />
          </mxGeometry>
        </mxCell>
        <mxCell id="MVjOP8AUCmfijOdewOWv-25" value="" style="endArrow=none;html=1;rounded=0;entryX=1;entryY=0.5;entryDx=0;entryDy=0;exitX=0.075;exitY=0.517;exitDx=0;exitDy=0;exitPerimeter=0;" parent="1" source="MVjOP8AUCmfijOdewOWv-26" target="D-RA_q1G5jw-01Rus7TT-1" edge="1">
          <mxGeometry width="50" height="50" relative="1" as="geometry">
            <mxPoint x="40" y="25" as="sourcePoint" />
            <mxPoint x="-50" y="60" as="targetPoint" />
          </mxGeometry>
        </mxCell>
        <mxCell id="MVjOP8AUCmfijOdewOWv-26" value="Contiene" style="shape=rhombus;perimeter=rhombusPerimeter;whiteSpace=wrap;html=1;align=center;" parent="1" vertex="1">
          <mxGeometry x="140" y="-2.5" width="120" height="60" as="geometry" />
        </mxCell>
        <mxCell id="MVjOP8AUCmfijOdewOWv-27" value="" style="endArrow=none;html=1;rounded=0;entryX=1;entryY=0.5;entryDx=0;entryDy=0;exitX=0;exitY=0.5;exitDx=0;exitDy=0;" parent="1" source="D-RA_q1G5jw-01Rus7TT-4" target="MVjOP8AUCmfijOdewOWv-26" edge="1">
          <mxGeometry width="50" height="50" relative="1" as="geometry">
            <mxPoint x="224" y="37.5" as="sourcePoint" />
            <mxPoint x="169" y="37.5" as="targetPoint" />
          </mxGeometry>
        </mxCell>
        <mxCell id="MVjOP8AUCmfijOdewOWv-29" value="Usuario" style="ellipse;whiteSpace=wrap;html=1;" parent="1" vertex="1">
          <mxGeometry x="504" y="262.5" width="50" height="40" as="geometry" />
        </mxCell>
        <mxCell id="MVjOP8AUCmfijOdewOWv-30" value="" style="endArrow=none;html=1;rounded=0;entryX=0.5;entryY=1;entryDx=0;entryDy=0;exitX=1;exitY=0;exitDx=0;exitDy=0;" parent="1" source="D-RA_q1G5jw-01Rus7TT-20" target="MVjOP8AUCmfijOdewOWv-29" edge="1">
          <mxGeometry width="50" height="50" relative="1" as="geometry">
            <mxPoint x="569" y="292.5" as="sourcePoint" />
            <mxPoint x="499" y="311.5" as="targetPoint" />
          </mxGeometry>
        </mxCell>
        <mxCell id="MVjOP8AUCmfijOdewOWv-31" value="contraseÃ±a" style="ellipse;whiteSpace=wrap;html=1;aspect=fixed;" parent="1" vertex="1">
          <mxGeometry x="489" y="405" width="65" height="65" as="geometry" />
        </mxCell>
        <mxCell id="MVjOP8AUCmfijOdewOWv-32" value="" style="endArrow=none;html=1;rounded=0;exitX=0.892;exitY=1.017;exitDx=0;exitDy=0;exitPerimeter=0;" parent="1" source="D-RA_q1G5jw-01Rus7TT-20" target="MVjOP8AUCmfijOdewOWv-31" edge="1">
          <mxGeometry width="50" height="50" relative="1" as="geometry">
            <mxPoint x="494" y="380" as="sourcePoint" />
            <mxPoint x="374" y="349" as="targetPoint" />
          </mxGeometry>
        </mxCell>
        <mxCell id="MVjOP8AUCmfijOdewOWv-34" style="edgeStyle=orthogonalEdgeStyle;rounded=0;orthogonalLoop=1;jettySize=auto;html=1;exitX=0.5;exitY=1;exitDx=0;exitDy=0;" parent="1" source="MVjOP8AUCmfijOdewOWv-3" target="MVjOP8AUCmfijOdewOWv-3" edge="1">
          <mxGeometry relative="1" as="geometry" />
        </mxCell>
        <mxCell id="MVjOP8AUCmfijOdewOWv-39" value="clases" style="ellipse;whiteSpace=wrap;html=1;" parent="1" vertex="1">
          <mxGeometry x="-86" y="-40.5" width="55" height="30" as="geometry" />
        </mxCell>
        <mxCell id="MVjOP8AUCmfijOdewOWv-40" value="" style="endArrow=none;html=1;rounded=0;exitX=0.5;exitY=0;exitDx=0;exitDy=0;" parent="1" source="D-RA_q1G5jw-01Rus7TT-1" target="MVjOP8AUCmfijOdewOWv-39" edge="1">
          <mxGeometry width="50" height="50" relative="1" as="geometry">
            <mxPoint x="-27.5" y="-7.5" as="sourcePoint" />
            <mxPoint x="117.5" y="44.5" as="targetPoint" />
          </mxGeometry>
        </mxCell>
        <mxCell id="MVjOP8AUCmfijOdewOWv-47" value="N:1" style="text;html=1;strokeColor=none;fillColor=none;align=center;verticalAlign=middle;whiteSpace=wrap;rounded=0;rotation=0;" parent="1" vertex="1">
          <mxGeometry x="90" y="-25" width="60" height="30" as="geometry" />
        </mxCell>
        <mxCell id="MVjOP8AUCmfijOdewOWv-48" value="" style="endArrow=none;html=1;rounded=0;exitX=0.5;exitY=1;exitDx=0;exitDy=0;entryX=0;entryY=0;entryDx=0;entryDy=0;" parent="1" source="MVjOP8AUCmfijOdewOWv-49" target="D-RA_q1G5jw-01Rus7TT-20" edge="1">
          <mxGeometry relative="1" as="geometry">
            <mxPoint x="420" y="312.5" as="sourcePoint" />
            <mxPoint x="584" y="345" as="targetPoint" />
          </mxGeometry>
        </mxCell>
        <mxCell id="MVjOP8AUCmfijOdewOWv-49" value="Pertenece" style="shape=rhombus;perimeter=rhombusPerimeter;whiteSpace=wrap;html=1;align=center;" parent="1" vertex="1">
          <mxGeometry x="60" y="190" width="120" height="60" as="geometry" />
        </mxCell>
        <mxCell id="MVjOP8AUCmfijOdewOWv-50" value="" style="endArrow=none;html=1;rounded=0;exitX=0.5;exitY=0;exitDx=0;exitDy=0;entryX=0.75;entryY=1;entryDx=0;entryDy=0;" parent="1" source="MVjOP8AUCmfijOdewOWv-49" target="D-RA_q1G5jw-01Rus7TT-1" edge="1">
          <mxGeometry width="50" height="50" relative="1" as="geometry">
            <mxPoint x="150" y="217.5" as="sourcePoint" />
            <mxPoint x="112.5" y="75" as="targetPoint" />
          </mxGeometry>
        </mxCell>
        <mxCell id="MVjOP8AUCmfijOdewOWv-57" value="N:1" style="text;html=1;strokeColor=none;fillColor=none;align=center;verticalAlign=middle;whiteSpace=wrap;rounded=0;rotation=0;" parent="1" vertex="1">
          <mxGeometry x="125" y="162.5" width="60" height="30" as="geometry" />
        </mxCell>
      </root>
    </mxGraphModel>
  </diagram>
</mxfile>
